# xmcd CD database file
# Copyright (C) 1993-1998 Ti Kan
# 
# Track frame offsets:
#     150
#     12792
#     25302
#     39115
#     53617
#     68685
#     83077
#     98920
#     114915
#     124792
#     138592
#     150627
#     160852
#     175427
#     191300
#     204430
#     221685
#     239352
#     253037
#     273470
# 
# Disc length: 3815 seconds
# 
# Revision: 1
# Processed by: cddbd v1.4b41PL1 Copyright (c) Steve Scherf et al.
# Submitted via: DiscPlay 4.0.4
# 
DISCID=080ee514
DTITLE=Dwight Yoakam - This Is Dwight Yoakam
DYEAR=1900
DGENRE=
TTITLE0=Honky Tonk Man
TTITLE1=I'll Be Gone
TTITLE2=Guitars, Cadillacs
TTITLE3=Heartaches By The Numbers
TTITLE4=Little Ways
TTITLE5=Smoke Along The Track
TTITLE6=Please, Please Baby
TTITLE7=Readin', Rightin', RT.23
TTITLE8=Always Late With Your Kisses
TTITLE9=Little Sister
TTITLE10=Santa Claus Is Back In Town
TTITLE11=Jingle Bells
TTITLE12=I Hear You Knockin'
TTITLE13=I Got You
TTITLE14=Home Of The Blues
TTITLE15=I Sang Dixie
TTITLE16=Sin City
TTITLE17=Send Me The Pillow
TTITLE18=Buenas Noches From A Lonely Room (She Wore Red Dresses)
TTITLE19=Streets Of Bakersfield
EXTD=
EXTT0=
EXTT1=
EXTT2=
EXTT3=
EXTT4=
EXTT5=
EXTT6=
EXTT7=
EXTT8=
EXTT9=
EXTT10=
EXTT11=
EXTT12=
EXTT13=
EXTT14=
EXTT15=
EXTT16=(with k.d. lang)
EXTT17=(with Maria McKee)
EXTT18=
EXTT19=(with Buck Owens)
PLAYORDER=
